<svg width="500" height="500" viewBox="0 0 500 500" fill="none" xmlns="http://www.w3.org/2000/svg">
<path d="M315.888 1.96333C316.099 0.879015 317.109 0.310503 318.145 0.693529L498.124 67.2323C499.16 67.6153 499.829 68.8048 499.619 69.8891L433.923 408.177C433.712 409.261 432.702 409.83 431.666 409.447L251.687 342.908C250.651 342.525 249.982 341.335 250.192 340.251L315.888 1.96333Z" fill="#D31717"/>
<path d="M0.38128 69.8892C0.170706 68.8049 0.839871 67.6154 1.8759 67.2324L181.854 0.693619C182.891 0.310594 183.901 0.879099 184.112 1.96341L249.807 340.251C250.018 341.336 249.349 342.525 248.313 342.908L68.3342 409.447C67.2982 409.83 66.2876 409.261 66.077 408.177L0.38128 69.8892Z" fill="#D38817"/>
<path d="M316.22 219.482C318.527 226.472 318.515 233.974 316.184 241.989C313.719 250.466 309.376 256.659 303.154 260.568C296.932 264.477 290.695 264.932 284.442 261.933L182.224 217.518C177.143 215.168 173.097 211.318 170.087 205.966C167.076 200.615 165.348 194.364 164.901 187.212C164.455 180.061 165.313 172.657 167.475 165.001C168.271 162.485 169.249 160.012 170.409 157.583C171.569 155.154 172.894 152.936 174.385 150.928C175.875 148.921 178.291 147.339 180.117 145.625C183.023 144.409 183.755 144.367 185.541 144.278C195.347 143.789 195.458 144.443 203.496 148.21C203.008 146.878 204.598 148.651 203.496 148.21C203.983 149.541 202.619 157.577 202.232 159.016C203.285 158.292 201.846 160.455 202.232 159.016C203.332 159.394 201.18 159.741 202.232 159.016C196.128 156.176 195.19 154.021 187.974 155.521C181.06 156.238 177.571 160.799 175.319 168.763C173.806 173.745 173.047 178.694 173.042 183.609C173.038 188.524 174.048 193.18 176.073 197.576C178.098 201.972 181.1 205.124 185.079 207.032L287.297 251.448C291.504 253.466 295.668 253.18 299.789 250.59C303.91 248.001 306.8 243.854 308.458 238.152C309.22 235.532 309.594 232.967 309.579 230.457C309.564 227.947 309.098 225.594 308.182 223.399C306.509 218.908 303.472 215.651 299.073 213.629L217.691 178.417C217.123 178.144 216.543 177.91 215.952 177.714C215.361 177.519 214.683 177.347 213.916 177.199C213.149 177.051 212.378 177.032 211.601 177.142C210.824 177.252 210.081 177.467 209.373 177.786C208.665 178.105 208.023 178.697 207.448 179.563C206.872 180.428 206.405 181.477 206.046 182.71C205.115 185.689 205.039 188.067 205.818 189.845C206.63 191.728 208.361 193.348 211.011 194.707L272.29 221.2C272.972 221.527 273.55 222.045 274.023 222.756C274.497 223.466 274.801 224.314 274.935 225.3C275.069 226.287 275.002 227.242 274.733 228.167C274.364 229.658 273.664 230.728 272.634 231.375C271.604 232.023 270.537 232.126 269.435 231.685L208.037 205.267C203.455 202.981 200.282 199.747 198.519 195.565C196.549 190.756 196.461 185.269 198.253 179.104C199.877 173.297 202.748 169.384 206.866 167.363C210.984 165.343 215.544 165.532 220.546 167.931L302.047 203.069C308.413 206.123 312.943 211.149 315.636 218.149C315.705 218.357 315.802 218.58 315.928 218.815C316.053 219.051 316.151 219.274 316.22 219.482Z" fill="#0D9DCA"/>
<path fill-rule="evenodd" clip-rule="evenodd" d="M330.028 465.7C308.094 488.079 276.189 500 248.671 500C210.119 500 175.555 480.374 149.234 447.725C147.24 445.158 148.968 441.673 151.493 443.69C179.809 466.434 214.772 480.007 250.931 480.007C275.258 480.007 302.111 473.038 326.838 458.547C330.559 456.529 333.617 462.032 330.028 465.7H330.028Z" fill="#0D9DCA"/>
<path fill-rule="evenodd" clip-rule="evenodd" d="M341.063 450.964C338.272 446.012 322.452 448.579 315.406 449.863C313.279 450.23 312.88 447.662 314.874 445.828C327.504 433.539 348.109 437.207 350.502 441.242C352.894 445.278 349.837 473.889 338.004 487.464C336.143 489.482 334.414 488.381 335.213 485.63C337.872 476.459 343.855 456.098 341.063 450.964Z" fill="#0D9DCA"/>
</svg>
